PathFileType	4	(X/Y/Z)	Patient4_TMGait_0pt2_01_left_03.trc.trc
DataRate	CameraRate	NumFrames	NumMarkers	Units	OrigDataRate	OrigDataStartFrame	OrigNumFrames
41.176470588235	41.176470588235	5	33	mm	41.176470588235	53	       141
Frame#	Time	Sacral			L.Shoulder			Chest			R.Shoulder			Neck			R.ASIS			L.ASIS			R.Thigh.Superior			R.Thigh.Lateral			R.Thigh.Inferior			R.Patella			L.Thigh.Superior			L.Thigh.Lateral			L.Thigh.Inferior			L.Patella			L.Shank.Superior			L.Shank.Lateral			L.Shank.Inferior			R.Shank.Superior			R.Shank.Lateral			R.Shank.Inferior			R.Heel			R.Midfoot.Superior			R.Midfoot.Lateral			R.Toe			L.Heel			L.Midfoot.Lateral			L.Midfoot.Superior			L.Toe			L.Elbow			L.Wrist			R.Elbow			R.Wrist			
		X1	Y1	Z1	X2	Y2	Z2	X3	Y3	Z3	X4	Y4	Z4	X5	Y5	Z5	X6	Y6	Z6	X7	Y7	Z7	X8	Y8	Z8	X9	Y9	Z9	X10	Y10	Z10	X11	Y11	Z11	X12	Y12	Z12	X13	Y13	Z13	X14	Y14	Z14	X15	Y15	Z15	X16	Y16	Z16	X17	Y17	Z17	X18	Y18	Z18	X19	Y19	Z19	X20	Y20	Z20	X21	Y21	Z21	X22	Y22	Z22	X23	Y23	Z23	X24	Y24	Z24	X25	Y25	Z25	X26	Y26	Z26	X27	Y27	Z27	X28	Y28	Z28	X29	Y29	Z29	X30	Y30	Z30	X31	Y31	Z31	X32	Y32	Z32	X33	Y33	Z33	

53	6.932857142857	800.679616539388	1007.429210753914	439.352602078415	985.687113595767	1432.469720704986	259.662116820808	1091.295570175938	1359.890945090194	417.091145853325	1013.824873834160	1432.746717026541	593.919985914905	973.100526407144	1491.536272779122	425.986010131905	1029.837640396012	933.869727347420	553.221240379781	1012.968345118082	956.896831284717	280.205029116483	1043.018153487946	724.610851089304	537.164870954082	950.305676922537	628.375265944011	608.664693222225	1020.229875472253	559.257424833562	536.135066005555	1004.870724342439	461.518410941682	556.568272142021	1066.990642764236	750.649402571749	320.331484845017	990.402961798204	624.567363444577	261.367793704648	1076.328654725183	554.258455507402	330.463153370565	1079.536170213842	481.086576170401	340.299277720495	1043.808388362018	408.040600147264	334.411775467511	946.976408308647	301.835344072038	279.706407931402	979.726337262319	187.938983171730	354.601903874352	939.503752357776	389.876379052118	567.714781077264	830.479106950321	328.663489834220	632.786424473600	835.657325544872	218.440776926322	584.129040240017	648.649485893716	102.897587282038	564.669496602290	827.196028371305	105.848188186562	602.677343127990	725.724806332944	70.941720034143	639.134001956446	925.016808689741	36.210293108308	631.028836559195	837.044704082992	39.271842414342	388.813119403042	913.935322181272	36.380261431845	311.166290369558	997.276112875676	96.303116943860	341.680123095586	1125.926805217195	41.576440188196	316.724292043361	942.328862422718	1102.417559056062	104.416931022710	1014.602450942652	849.188268385249	93.188924315981	1099.079348326121	1099.691611266946	717.341565356567	1338.446640355157	1012.831906569150	685.210304446302	
54	6.957142857143	800.067687642194	1006.969582002337	435.447188214855	985.563981975518	1432.457864673012	256.746824812307	1090.316815909086	1360.006921904104	414.829437233411	1011.625838782122	1432.417698200836	591.366747406279	972.177601609630	1491.424103844346	423.205337333041	1029.176492038011	934.052395291041	550.097150415616	1013.100020220459	956.940839196608	277.061534222768	1046.171973947051	725.537845599497	534.235134677203	955.609011756012	628.027121606155	606.094666718247	1027.007908139070	559.631462283954	533.780625152666	1012.698886072735	460.658015815438	555.350334348970	1066.365028499071	749.787855075146	317.821639996654	989.038981735126	623.875637237510	259.428037722750	1074.167070071588	553.307922289343	329.117018255229	1076.907279455616	480.235936955195	339.410437239753	1040.833168620604	407.290553296139	333.648140160046	943.776767600176	301.316212739092	279.005795330112	975.553151007922	187.585282375547	354.450929356444	945.512210235394	389.854995282299	566.685375471581	834.820608160508	331.694428635893	631.582843974445	837.507555534398	221.123799390311	583.753919285129	647.821337540196	111.846659682278	564.539703348653	825.747447767848	107.204082345772	602.924141178795	723.094006481815	76.592861580952	638.995353063074	919.688820623260	35.911089875180	630.999208311340	832.201591707199	39.309881111393	388.780309583030	909.108977042765	36.382661308678	311.178966852640	992.476107312898	96.246863587248	341.722339819906	1121.113063171284	41.412824770828	316.731791537695	951.543963154410	1102.783025078052	97.978964749343	1040.185821006487	855.292972997424	85.025605518547	1079.095095711964	1093.609341343822	714.401934031554	1307.136222441549	981.159276118130	687.512913236390	
55	6.981428571429	799.512559122363	1006.446018581718	431.828005250438	985.466064938836	1432.436651482284	254.072531387235	1089.451457647103	1360.022363720145	412.719365406313	1009.594312363990	1431.908677584768	589.015597819079	971.363942440182	1491.239135214165	420.583827737100	1028.572653102520	934.173260271180	547.105972047700	1013.158783026785	956.901348259488	274.052310691867	1049.695785792009	726.663966927032	531.300273113430	961.575174856394	627.772630301402	603.571655002954	1034.484377054694	560.275819649782	531.388964953979	1021.400115254525	460.066341727262	554.079056029508	1065.737487254139	748.908748463843	315.392086045945	987.653517082959	623.168843772733	257.548769695972	1072.041399762636	552.344451388562	327.761420768347	1074.331782294704	479.364409280431	338.496557770385	1037.903844488841	406.517389146329	332.865846536745	940.590315837720	300.791886658798	278.302717366311	971.400471676393	187.222730121169	354.274583389840	952.392099261479	390.048323232488	565.592809121171	840.006162860030	335.194135103364	630.313949731100	839.987231820035	224.360336317724	583.277487032300	647.672128445064	122.231943713270	564.110238952563	824.574157966355	109.098108445742	603.082852553043	720.714334749323	83.386238487945	638.607890987309	914.013281114532	35.455159789053	630.938183187543	827.357935245026	39.356451400370	388.738546335760	904.283202797037	36.379395116345	311.184393750017	987.677982717798	96.186114424185	341.752556942642	1116.301252508645	41.242600865217	316.734792207296	960.995370986178	1103.581608942215	91.697395009955	1066.774180392364	863.384290022439	77.459648988036	1058.683415659037	1088.337994742918	711.063342294181	1271.992576811556	950.490278360926	689.683562758864	
56	7.005714285714	798.966714841592	1005.892049598424	428.494185724665	985.470621404109	1432.396077233895	251.638225916497	1088.718547864918	1359.918913888770	410.791741279971	1007.736121765223	1431.257529158164	586.870535520313	970.697927685874	1490.993225952437	418.102974885588	1027.958507768996	934.247509774843	544.286876889968	1013.123790507064	956.772060877594	271.209925336351	1053.535995313112	728.068332435452	528.372930220766	968.194364452660	627.691570936616	601.130407390996	1042.647759266972	561.287289711286	528.991132293345	1030.982842246503	459.824840964259	552.770959418842	1065.070032570865	748.011873945970	313.030431348793	986.183091313621	622.462157757530	255.724925916632	1069.898121346891	551.375516231479	326.376320259833	1071.753824869121	478.484002769937	337.536612834273	1034.975168097049	405.734695053373	332.045860262298	937.377484952846	300.265933269608	277.583663054686	967.248259544218	186.857495077632	354.063055310015	960.143192524893	390.521871639758	564.425334266410	846.023620223462	339.207521667534	628.943750783239	843.108794668130	228.188778631980	582.657978057067	648.250857081786	134.011419272178	563.274784439655	823.722623038715	111.638734051105	603.088195306838	718.649038963499	91.360503558824	637.890791141675	908.099494533902	34.824721142460	630.845260020324	822.509837075939	39.407358090447	388.687001297371	899.454655694748	36.367329499842	311.178394279330	982.876829215358	96.120656263885	341.764572129065	1111.487759771919	41.071442796681	316.732003811519	970.686336230180	1104.831483916502	85.612724571668	1093.972233834998	873.509979908806	70.606743354910	1038.078388199494	1084.034854429310	707.376918058397	1233.439457001859	921.783756903034	691.643821279219	
57	7.030000000000	798.377090105424	1005.352776219108	425.435642212917	985.660541875592	1432.330818789757	249.443098900945	1088.130702703303	1359.694867306397	409.086345356892	1006.039731527918	1430.525986641744	584.934533608103	970.211446613834	1490.709369729861	415.755851038015	1027.257776734672	934.302465079115	541.687757642517	1012.982877726749	956.558958597932	268.578731331950	1057.610792760610	729.832308771424	525.485448439040	975.407944237839	627.870889970975	598.818974692718	1051.438628398568	562.763836883363	526.638952948606	1041.395080676887	460.021904165012	551.457315026567	1064.317413355001	747.097059532270	310.739503676181	984.563362806550	621.777198175286	253.962066350482	1067.672823872325	550.412717338149	324.959005226287	1069.103932868128	477.612277533472	336.524834577158	1031.990001273431	404.963583447140	331.181248380875	934.092598184466	299.747838338866	276.843247717580	963.072509238739	186.499437888682	353.811357934394	968.720353322909	391.340293963870	563.186358551116	852.821160686756	343.734688316525	627.445121673188	846.886254420606	232.590945351098	581.862432783350	649.610153070761	146.949624790432	561.946538725283	823.297313508165	114.879111638477	602.878240686864	717.020392023667	100.410623789298	636.783713655609	902.203371275744	34.029160339280	630.729084085622	817.653678656988	39.459199837379	388.625569949414	894.620497467659	36.344874718791	311.158187096844	978.068436363132	96.051294749870	341.753529321058	1106.669275296850	40.904824655739	316.722516146883	980.636247306347	1106.533092258147	79.782370487979	1121.361629343914	885.611976717681	64.578076205733	1017.497365249960	1080.838728308805	703.438160499693	1192.140566943064	895.954704404006	693.304914827993	
